<svg width="80" height="80" viewBox="0 0 80 80" fill="none" xmlns="http://www.w3.org/2000/svg">
<path fill-rule="evenodd" clip-rule="evenodd" d="M75.2338 29.8181C70.9862 15.0908 57.7552 4.17179 41.8575 3.37787C41.6622 2.53341 40.9054 1.90393 40.0016 1.90393C39.0979 1.90393 38.3412 2.53325 38.1458 3.37754C18.7558 4.34236 3.33102 20.3692 3.33102 39.9986C3.33102 43.2002 3.74137 46.3061 4.51235 49.2663L3.55774 49.5289C3.22913 48.9567 2.61197 48.5713 1.90479 48.5713C0.852805 48.5713 0 49.4241 0 50.4761C0 51.5281 0.852805 52.3809 1.90479 52.3809C2.95678 52.3809 3.80959 51.5281 3.80959 50.4761L3.80937 50.4474L4.76443 50.1848C9.01434 64.911 22.2468 75.8282 38.1452 76.6196C38.3395 77.4653 39.0969 78.096 40.0016 78.096C40.9064 78.096 41.6639 77.4651 41.8581 76.6192C61.2447 75.6507 76.6656 59.6255 76.6656 39.9986C76.6656 36.799 76.2558 33.6951 75.4858 30.7366L76.4442 30.473C76.7732 31.0433 77.3894 31.4272 78.0952 31.4272C79.1472 31.4272 80 30.5744 80 29.5224C80 28.4705 79.1472 27.6177 78.0952 27.6177C77.0432 27.6177 76.1904 28.4705 76.1904 29.5224L76.1907 29.555L75.2338 29.8181ZM41.8333 75.6669C60.402 74.7271 75.2298 59.6056 75.7016 40.9171C72.8761 44.7401 58.2137 47.6627 40.4748 47.7137V74.3457C41.1294 74.513 41.6483 75.0195 41.8333 75.6669ZM39.5224 74.3472V47.7137C31.9425 47.6915 24.9246 47.1451 19.1524 46.2281L15.4534 47.2453C17.9141 59.9632 26.7269 70.4025 38.4411 75.0987C38.6973 74.7335 39.0784 74.4623 39.5224 74.3472ZM41.8341 4.33031C41.6498 4.979 41.1304 5.48666 40.4748 5.65425V12.3797C52.1093 12.4175 62.0531 13.8462 66.3307 15.8705C60.1874 9.1696 51.5197 4.82071 41.8341 4.33031ZM39.5224 5.65271C39.0765 5.53716 38.694 5.26412 38.4378 4.89648C33.7304 6.78416 29.4917 9.5993 25.9456 13.117C29.9658 12.6619 34.5922 12.3959 39.5224 12.3797V5.65271ZM15.2951 33.6213C15.9943 29.4897 17.3614 25.5866 19.2809 22.0279C24.3848 23.1026 31.5572 23.7807 39.5224 23.8068V31.4293C30.1597 31.4566 21.6545 32.2839 15.2951 33.6213ZM39.5224 32.3816C30.0309 32.4096 21.4521 33.2643 15.1386 34.6285C14.8902 36.3821 14.7617 38.1744 14.7617 39.9969C14.7617 41.5172 14.8511 43.0165 15.0249 44.4898C16.294 44.7665 17.6557 45.0224 19.0989 45.2551L38.0971 40.0306L38.0968 39.9995C38.0968 39.113 38.7024 38.368 39.5224 38.1555L39.5224 32.3816ZM41.6546 39.0523C41.4019 38.6123 40.9785 38.2827 40.4748 38.1539V32.3816C47.9786 32.4033 54.9122 32.9418 60.6074 33.8403L41.6546 39.0523ZM40.4748 41.845C41.2979 41.6346 41.9064 40.8881 41.9064 39.9995L41.9062 39.9709L62.8215 34.2192C63.7137 34.3845 64.569 34.5593 65.3843 34.7427C68.6232 35.4715 71.1791 36.3262 72.9021 37.2427C73.7644 37.7014 74.3721 38.1517 74.7536 38.5712C75.1302 38.9852 75.2411 39.3158 75.2411 39.5715C75.2411 39.8272 75.1302 40.1577 74.7536 40.5718C74.3721 40.9912 73.7644 41.4415 72.9021 41.9003C71.1791 42.8168 68.6232 43.6715 65.3843 44.4002C59.0243 45.8312 50.2316 46.7331 40.4748 46.7613V41.845ZM38.3499 40.9488C38.6017 41.386 39.0222 41.7138 39.5224 41.8435V46.7613C32.8937 46.7418 26.7101 46.3191 21.4324 45.6011L38.3499 40.9488ZM15.1568 45.4924C15.7347 45.6152 16.3305 45.7338 16.9433 45.8479L15.2836 46.3043C15.2385 46.0346 15.1962 45.764 15.1568 45.4924ZM14.1642 45.2732C14.2226 45.7038 14.2881 46.1322 14.3604 46.5581L5.43097 49.0137C4.75495 46.4144 4.36437 43.6999 4.29471 40.9057C5.53054 42.5927 9.07095 44.1049 14.1642 45.2732ZM14.5322 47.4987L5.68305 49.9322C9.73505 63.9542 22.1489 74.4279 37.1744 75.6032C25.6414 70.6299 17.0091 60.1721 14.5322 47.4987ZM68.5074 18.483C71.1019 21.9153 73.0908 25.8309 74.3152 30.0707L62.7792 33.2431C56.673 32.1291 48.9228 31.4535 40.4748 31.4292V23.8069C55.3837 23.7584 67.5163 21.4261 68.5074 18.483ZM74.5671 30.9892L64.8712 33.6555C70.4249 34.8378 74.3147 36.4117 75.6677 38.1808C75.5438 35.709 75.1686 33.3035 74.5671 30.9892ZM40.4748 22.8545C48.1324 22.8294 55.0279 22.198 60.0175 21.2C62.5716 20.6892 64.5767 20.0919 65.9204 19.4566C66.5946 19.1378 67.0515 18.8327 67.3267 18.5638C67.6002 18.2965 67.6204 18.1414 67.6204 18.0933C67.6204 18.0451 67.6002 17.8901 67.3267 17.6227C67.0515 17.3538 66.5946 17.0488 65.9204 16.73C64.5767 16.0946 62.5716 15.4973 60.0175 14.9865C55.0279 13.9886 48.1324 13.3572 40.4748 13.3321V22.8545ZM39.5224 13.3321V22.8544C31.8667 22.8291 24.973 22.1978 19.9843 21.2C19.9112 21.1854 19.8385 21.1707 19.7662 21.1559C21.2098 18.6409 22.9336 16.3086 24.8946 14.2019C29.1281 13.6677 34.1367 13.3499 39.5224 13.3321ZM14.2939 33.8401C14.9753 29.5565 16.3561 25.5072 18.3151 21.814C14.4134 20.9053 11.9153 19.7485 11.4928 18.4782C7.3067 24.0142 4.69614 30.808 4.3283 38.1922C5.60458 36.5091 9.1767 35.0021 14.2939 33.8401ZM18.7899 20.9459C20.1118 18.6007 21.6702 16.4076 23.4326 14.3994C22.2036 14.5768 21.0505 14.7733 19.9843 14.9865C17.4303 15.4973 15.4252 16.0946 14.0815 16.73C13.4072 17.0488 12.9504 17.3538 12.6752 17.6227C12.4017 17.8901 12.3814 18.0451 12.3814 18.0933C12.3814 18.1414 12.4017 18.2965 12.6752 18.5638C12.9504 18.8327 13.4072 19.1378 14.0815 19.4566C15.2081 19.9893 16.7996 20.4952 18.7899 20.9459ZM13.6618 15.8749C15.8933 14.8164 19.6734 13.9205 24.4346 13.3007C28.0087 9.52919 32.332 6.48031 37.1651 4.39468C27.8805 5.12334 19.5938 9.40242 13.6618 15.8749ZM14.041 44.2668C11.0758 43.568 8.72157 42.7614 7.10265 41.9003C6.24034 41.4415 5.63262 40.9912 5.25115 40.5718C4.8746 40.1577 4.76369 39.8272 4.76369 39.5715C4.76369 39.3158 4.8746 38.9852 5.25115 38.5712C5.63262 38.1517 6.24034 37.7014 7.10265 37.2427C8.74075 36.3713 11.1317 35.5558 14.1467 34.8514C13.9242 36.5348 13.8093 38.2524 13.8093 39.9969C13.8093 41.44 13.8879 42.8647 14.041 44.2668Z" fill="#070A15"/>
</svg>
