<svg width="80" height="80" viewBox="0 0 80 80" fill="none" xmlns="http://www.w3.org/2000/svg">
<g clip-path="url(#clip0_304_4939)">
<path fill-rule="evenodd" clip-rule="evenodd" d="M65.2732 2.86845C65.7948 2.63357 66.158 2.1092 66.158 1.5C66.158 0.671573 65.4864 0 64.658 0C63.8295 0 63.158 0.671573 63.158 1.5C63.158 2.19648 63.6326 2.7821 64.2761 2.95097C64.3804 4.88617 64.6933 7.23451 65.2213 9.56667C65.8801 12.4769 66.8851 15.4132 68.2741 17.4968C69.6391 19.5443 71.3601 21.2091 73.1388 22.3651C73.8611 22.8345 74.5984 23.2234 75.3301 23.5195C72.3183 23.9511 69.1506 24.7799 65.973 25.9626C64.9435 25.0295 63.9731 23.995 63.0961 22.8703C60.9917 20.1718 59.4171 16.2859 58.3693 12.3292C57.4739 8.9479 56.9732 5.55327 56.8475 2.87052C57.3716 2.63667 57.7369 2.11099 57.7369 1.5C57.7369 0.671573 57.0654 0 56.2369 0C55.4085 0 54.7369 0.671573 54.7369 1.5C54.7369 2.19469 55.2092 2.77908 55.8502 2.94966C55.9822 5.70784 56.4953 9.15894 57.4026 12.5852C58.4659 16.6005 60.0843 20.6342 62.3075 23.4852C63.1125 24.5176 63.9957 25.4797 64.9329 26.3623C62.5673 27.2997 60.2052 28.4306 57.9068 29.7369C57.6305 29.4346 57.36 29.1268 57.0956 28.8136C54.1719 25.3496 51.9921 20.3734 50.5437 15.3203C49.2619 10.8479 48.5646 6.35646 48.4222 2.87235C48.9486 2.63943 49.3158 2.1126 49.3158 1.5C49.3158 0.671573 48.6442 0 47.8158 0C46.9874 0 46.3158 0.671573 46.3158 1.5C46.3158 2.19307 46.7858 2.77636 47.4245 2.94846C47.5739 6.51875 48.2864 11.0739 49.5824 15.5958C51.0494 20.714 53.2789 25.842 56.3314 29.4585C56.5573 29.7262 56.7877 29.9901 57.0222 30.2502C54.8878 31.5146 52.8159 32.9306 50.8559 34.4836C47.2335 30.2686 44.5281 24.3315 42.719 18.315C41.0454 12.7487 40.1516 7.15707 39.9978 2.87387C40.5259 2.64172 40.8948 2.11393 40.8948 1.5C40.8948 0.671573 40.2232 0 39.3948 0C38.5663 0 37.8948 0.671573 37.8948 1.5C37.8948 2.19173 38.363 2.77409 38.9998 2.94745C39.161 7.32422 40.072 12.9842 41.7614 18.6029C43.5874 24.6758 46.3376 30.7502 50.0777 35.1123C48.4726 36.4346 46.9495 37.8504 45.5369 39.3511C45.2556 39.6499 44.9788 39.9561 44.7064 40.2694C40.3401 35.299 37.0795 28.3475 34.8949 21.3116C32.8264 14.6497 31.7361 7.95602 31.574 2.87503C32.1036 2.64347 32.4736 2.11495 32.4736 1.5C32.4736 0.671573 31.8021 0 30.9736 0C30.1452 0 29.4736 0.671573 29.4736 1.5C29.4736 2.19069 29.9405 2.77235 30.5758 2.94667C30.7457 8.12661 31.8545 14.8919 33.9398 21.6081C34.1358 22.2392 34.3405 22.8703 34.554 23.5H2.91465C2.70873 22.9174 2.15311 22.5 1.5 22.5C0.671573 22.5 0 23.1716 0 24C0 24.8284 0.671573 25.5 1.5 25.5C2.15311 25.5 2.70873 25.0826 2.91465 24.5H34.901C35.7627 26.9275 36.7563 29.3226 37.8848 31.6053H2.9401C2.75812 30.9818 2.18225 30.5263 1.5 30.5263C0.671573 30.5263 0 31.1979 0 32.0263C0 32.8547 0.671573 33.5263 1.5 33.5263C2.12321 33.5263 2.65765 33.1463 2.88419 32.6053H38.3917C39.684 35.0917 41.1418 37.426 42.7693 39.5H2.91465C2.70873 38.9174 2.15311 38.5 1.5 38.5C0.671573 38.5 0 39.1716 0 40C0 40.8284 0.671573 41.5 1.5 41.5C2.15311 41.5 2.70873 41.0826 2.91465 40.5H43.5846C43.7399 40.6831 43.8966 40.8639 44.0547 41.0422C42.4757 42.9725 41.053 45.1384 39.7829 47.4474H2.94011C2.75814 46.8239 2.18226 46.3684 1.5 46.3684C0.671573 46.3684 0 47.04 0 47.8684C0 48.6968 0.671573 49.3684 1.5 49.3684C2.1232 49.3684 2.65763 48.9884 2.88418 48.4474H39.2469C38.0674 50.7056 37.0287 53.0839 36.1276 55.5H2.91465C2.70873 54.9174 2.15311 54.5 1.5 54.5C0.671573 54.5 0 55.1716 0 56C0 56.8284 0.671573 57.5 1.5 57.5C2.15311 57.5 2.70873 57.0826 2.91465 56.5H35.7632C35.4935 57.2576 35.2371 58.0178 34.9941 58.7781C32.8939 65.3486 31.7732 71.9675 31.5949 77.0482C30.9498 77.216 30.4736 77.8024 30.4736 78.5C30.4736 79.3284 31.1452 80 31.9736 80C32.8021 80 33.4736 79.3284 33.4736 78.5C33.4736 77.8923 33.1122 77.3689 32.5926 77.1332C32.7614 72.1526 33.8626 65.6024 35.9466 59.0826C37.9624 52.7765 40.8847 46.5393 44.7366 41.7885C46.4287 43.5964 48.2735 45.2797 50.2229 46.8239C46.9895 50.9703 44.5647 56.3502 42.8997 61.7288C41.2099 67.1879 40.2903 72.6872 40.113 76.9673C39.4601 77.1617 38.9854 77.7519 38.9854 78.4498C38.9854 79.3059 39.6999 80 40.5813 80C41.4627 80 42.1772 79.3059 42.1772 78.4498C42.1772 77.7747 41.733 77.2004 41.113 76.9876C41.2883 72.8103 42.1894 67.4056 43.855 62.0245C45.5012 56.7064 47.8819 51.4516 51.0125 47.4374C53.0013 48.9532 55.0895 50.326 57.2283 51.5409C54.3466 55.059 52.2233 59.8748 50.805 64.6815C49.5117 69.0644 48.793 73.4795 48.6292 76.9659C47.9739 77.1588 47.4968 77.7502 47.4968 78.4498C47.4968 79.3059 48.2113 80 49.0928 80C49.9742 80 50.6887 79.3059 50.6887 78.4498C50.6887 77.7764 50.2467 77.2033 49.6292 76.9893C49.7908 73.5985 50.4929 69.2727 51.7641 64.9645C53.1831 60.1555 55.2969 55.4177 58.1171 52.0351C60.4367 53.2974 62.8073 54.3738 65.1675 55.2453C64.6448 55.7775 64.1437 56.3395 63.6691 56.9307C61.4208 59.7313 59.7842 63.6938 58.709 67.6378C57.8072 70.9459 57.2904 74.2779 57.1463 76.9644C56.4882 77.1556 56.0085 77.7483 56.0085 78.4498C56.0085 79.3059 56.7231 80 57.6045 80C58.4859 80 59.2004 79.3059 59.2004 78.4498C59.2004 77.7783 58.761 77.2066 58.1463 76.9911C58.288 74.3901 58.7909 71.1394 59.6738 67.9008C60.7324 64.0177 62.3232 60.2046 64.4489 57.5567C65.0017 56.8681 65.5917 56.2214 66.2105 55.6174C69.515 56.7546 72.7815 57.4835 75.8409 57.7521C73.6208 58.6794 71.3896 60.3479 69.6994 62.8107C68.2942 64.8583 67.2777 67.7435 66.6115 70.6022C66.0905 72.8375 65.7766 75.0883 65.6637 76.9627C65.0026 77.1522 64.5201 77.7462 64.5201 78.4498C64.5201 79.3059 65.2347 80 66.1161 80C66.9975 80 67.712 79.3059 67.712 78.4498C67.712 77.7805 67.2753 77.2102 66.6636 76.9932C66.7743 75.1878 67.0783 73.0048 67.5854 70.8291C68.2401 68.0199 69.2214 65.2745 70.5239 63.3765C72.4044 60.6365 74.983 58.9761 77.3638 58.2688C77.6388 58.5877 78.0459 58.7895 78.5 58.7895C79.1231 58.7895 79.6575 58.4095 79.8841 57.8687C79.9052 57.8685 79.9263 57.8684 79.9473 57.8684V57.685C79.9817 57.559 80 57.4264 80 57.2895C80 57.1526 79.9817 57.02 79.9473 56.894V56.8684C79.9449 56.8684 79.9425 56.8684 79.9401 56.8684C79.7581 56.245 79.1822 55.7895 78.5 55.7895C77.8302 55.7895 77.2629 56.2285 77.0702 56.8345C73.9296 56.6795 70.5177 55.9953 67.0447 54.8436C70.1813 52.079 73.9144 50.339 77.2589 49.7112C77.5289 50.1079 77.984 50.3684 78.5 50.3684C79.1231 50.3684 79.6575 49.9884 79.8841 49.4475L79.9473 49.4474V49.2639C79.9817 49.1379 80 49.0053 80 48.8684C80 48.7315 79.9817 48.5989 79.9473 48.473V48.4474L79.9401 48.4474C79.7581 47.8239 79.1823 47.3684 78.5 47.3684C77.8333 47.3684 77.2681 47.8034 77.0729 48.4051C73.5898 48.1907 69.7103 47.1668 65.8565 45.4602C69.589 43.1826 73.6005 41.7278 77.2165 41.2241C77.4794 41.6577 77.9559 41.9474 78.5 41.9474C79.1232 41.9474 79.6576 41.5674 79.8842 41.0264L79.9474 41.0263V40.8424C79.9817 40.7165 80 40.5841 80 40.4474C80 40.3107 79.9817 40.1782 79.9474 40.0524V40.0263L79.9401 40.0263C79.7581 39.4029 79.1822 38.9474 78.5 38.9474C77.8384 38.9474 77.2768 39.3757 77.0775 39.9702C73.5834 39.6855 69.5977 38.3257 65.8102 36.1047C69.6654 34.3117 73.5988 33.1637 77.1935 32.7637C77.451 33.219 77.9396 33.5263 78.5 33.5263C79.1232 33.5263 79.6576 33.1463 79.8842 32.6053L79.9473 32.6053V32.4217C79.9817 32.2957 80 32.1632 80 32.0263C80 31.8894 79.9817 31.7569 79.9473 31.6309V31.6053L79.9401 31.6053C79.7581 30.9818 79.1823 30.5263 78.5 30.5263C77.8482 30.5263 77.2935 30.942 77.0866 31.5228C73.8738 31.1383 70.1178 29.4251 66.8373 26.7112C70.3845 25.434 73.9023 24.6121 77.1742 24.3076C77.4261 24.7821 77.9253 25.1053 78.5 25.1053C79.1269 25.1053 79.6639 24.7207 79.8881 24.1747L79.9473 24.1746V24.0006C79.9817 23.8747 80 23.7421 80 23.6053C80 23.4684 79.9817 23.3358 79.9473 23.2099V23.1746L79.9373 23.1747C79.7522 22.5561 79.1788 22.1053 78.5 22.1053C77.8738 22.1053 77.3372 22.489 77.1125 23.0342C76.0331 22.7987 74.857 22.289 73.6837 21.5266C72.0211 20.4461 70.3971 18.8786 69.1062 16.9421C67.8163 15.0071 66.8447 12.2086 66.1966 9.34588C65.6768 7.04977 65.3725 4.74545 65.2732 2.86845ZM75.0927 49.2121C71.9733 50.1459 68.7212 51.9222 65.9653 54.4713C63.5696 53.6132 61.1554 52.5371 58.791 51.263C60.5946 49.2735 62.6605 47.5439 64.8467 46.1012C68.3104 47.6992 71.8208 48.7666 75.0927 49.2121ZM74.7869 40.6634C71.5332 40.0436 68.0393 38.6486 64.732 36.6241C62.3671 37.803 60.0468 39.2232 57.8686 40.8606C60.0794 42.4596 62.4119 43.8359 64.769 44.9601C68.0081 42.8971 71.4856 41.4364 74.7869 40.6634ZM63.7991 45.6009C61.4847 44.458 59.2042 43.0807 57.0438 41.4965C55.3585 42.829 53.7691 44.2943 52.3232 45.8806C52.0924 46.1338 51.8652 46.3937 51.6416 46.6599C53.6412 48.1823 55.742 49.5566 57.8917 50.7675C59.6515 48.7956 61.6623 47.0648 63.7991 45.6009ZM51.5841 45.2069C51.3356 45.4796 51.0913 45.7595 50.8512 46.0462C48.9066 44.5064 47.0672 42.8246 45.383 41.0156C45.6721 40.6807 45.9661 40.3541 46.265 40.0365C47.6576 38.5571 49.1594 37.1624 50.7417 35.8606C52.4113 37.6905 54.259 39.3694 56.2178 40.8761C54.5657 42.1988 53.0069 43.6461 51.5841 45.2069ZM63.75 36.0008C61.43 37.1959 59.1616 38.6166 57.0319 40.2402C55.0613 38.7428 53.2006 37.0661 51.5216 35.2317C53.4912 33.6745 55.5747 32.2588 57.7196 30.9996C59.5492 32.9055 61.6 34.5864 63.75 36.0008ZM74.8498 32.1033C71.589 32.71 68.149 33.8588 64.7894 35.4821C62.5953 34.0911 60.4905 32.4114 58.6137 30.4858C60.9557 29.1683 63.3612 28.0372 65.7632 27.1115C68.592 29.5571 71.8229 31.2984 74.8498 32.1033Z" fill="#070A15"/>
</g>
<defs>
<clipPath id="clip0_304_4939">
<rect width="80" height="80" fill="white"/>
</clipPath>
</defs>
</svg>
