<svg width="80" height="80" viewBox="0 0 80 80" fill="none" xmlns="http://www.w3.org/2000/svg">
<g clip-path="url(#clip0_304_4947)">
<path fill-rule="evenodd" clip-rule="evenodd" d="M79 1H78.8948L79 1.10525V1ZM1.70708 1H78.2929L71.2929 8H8.70708L1.70708 1ZM1.10525 1H1V1.10525L1.10525 1ZM1 1.70713V78.2929L8 71.2929V8.70713L1 1.70713ZM9 9.70713V70.2929L16 63.2929V16.7071L9 9.70713ZM17 17.7071V62.2929L24 55.2929V24.7071L17 17.7071ZM24.7071 24L17.7071 17H62.2929L55.2929 24H24.7071ZM25 25.7071L31.7517 32.4588L32.4588 31.7517L25.7071 25H54.2929L47.5412 31.7517L48.2483 32.4588L55 25.7071V54.2929L48.2483 47.5412L47.5412 48.2483L54.2929 55H25.7071L32.4588 48.2483L31.7517 47.5412L25 54.2929V25.7071ZM55.2929 56H24.7071L17.7071 63H62.2929L55.2929 56ZM63.2929 64H16.7071L9.70713 71H70.2929L63.2929 64ZM71 70.2929L64 63.2929V16.7071L71 9.70713V70.2929ZM71.2929 72H8.70713L1.70713 79H78.2929L71.2929 72ZM78.8947 79H79V78.8947L78.8947 79ZM79 78.2929L72 71.2929V8.70713L79 1.70713V78.2929ZM63 62.2929L56 55.2929V24.7071L63 17.7071V62.2929ZM16.7071 16L9.70708 9H70.2929L63.2929 16H16.7071ZM1 78.8947L1.10528 79H1V78.8947ZM0 0V80H80V0H0ZM47 40C47 43.866 43.866 47 40 47C36.134 47 33 43.866 33 40C33 36.134 36.134 33 40 33C43.866 33 47 36.134 47 40ZM48 40C48 44.4183 44.4183 48 40 48C35.5817 48 32 44.4183 32 40C32 35.5817 35.5817 32 40 32C44.4183 32 48 35.5817 48 40Z" fill="#070A15"/>
</g>
<defs>
<clipPath id="clip0_304_4947">
<rect width="80" height="80" fill="white"/>
</clipPath>
</defs>
</svg>
